<svg id="Layer_1" data-name="Layer 1" xmlns="http://www.w3.org/2000/svg" viewBox="0 0 212.48 212.5"><defs><style>.cls-1{fill:#ffffff;}</style></defs><title>Mulberry_tree_symbol</title><path class="cls-1" d="M297.28,521.92a100,100,0,1,1,100-100,100.09,100.09,0,0,1-100,100m0-206.23A106.25,106.25,0,1,0,403.52,421.95,106.37,106.37,0,0,0,297.28,315.7" transform="translate(-191.03 -315.7)"/><path class="cls-1" d="M313.06,493c-7.82-10.71-12.77-32.45-13.53-52.44H295c-0.76,20-5.71,41.71-13.54,52.44h31.62" transform="translate(-191.03 -315.7)"/><path class="cls-1" d="M359.45,414.26c12.69,6.27,20.48-6,20.48-6-12.71-6.28-20.48,6-20.48,6" transform="translate(-191.03 -315.7)"/><path class="cls-1" d="M327.6,415.41c-14.32-3.43-17.89,11-17.89,11,14.3,3.47,17.89-11,17.89-11" transform="translate(-191.03 -315.7)"/><path class="cls-1" d="M292.26,411.29C287.89,426.21,303,430.64,303,430.64c4.36-15-10.76-19.35-10.76-19.35" transform="translate(-191.03 -315.7)"/><path class="cls-1" d="M304.57,407.3c12.72-8.73,3.92-21.61,3.92-21.61-12.73,8.74-3.92,21.61-3.92,21.61" transform="translate(-191.03 -315.7)"/><path class="cls-1" d="M285.46,404.21c13.36-7.14,6.19-20.65,6.19-20.65-13.38,7.13-6.19,20.65-6.19,20.65" transform="translate(-191.03 -315.7)"/><path class="cls-1" d="M283.89,379.3c6.45-15.1-8.71-21.62-8.71-21.62-6.51,15,8.71,21.62,8.71,21.62" transform="translate(-191.03 -315.7)"/><path class="cls-1" d="M317.86,408.56c14.44,2.87,17.36-11.69,17.36-11.69-14.42-2.89-17.36,11.69-17.36,11.69" transform="translate(-191.03 -315.7)"/><path class="cls-1" d="M325.06,433.09c12.68,6.82,21-5.33,21-5.33-12.79-6.82-21,5.33-21,5.33" transform="translate(-191.03 -315.7)"/><path class="cls-1" d="M309.82,434.69c-3.13,14.9,11.7,19.78,11.7,19.78,3.15-14.93-11.7-19.78-11.7-19.78" transform="translate(-191.03 -315.7)"/><path class="cls-1" d="M345.07,440.3c7.2,13.68,21.86,7.84,21.86,7.84-7.19-13.66-21.86-7.84-21.86-7.84" transform="translate(-191.03 -315.7)"/><path class="cls-1" d="M351,429.6c12.63,8.84,23-3,23-3-12.59-8.87-23,3-23,3" transform="translate(-191.03 -315.7)"/><path class="cls-1" d="M354.7,407C339.78,403.86,335,418.68,335,418.68,349.92,421.83,354.7,407,354.7,407" transform="translate(-191.03 -315.7)"/><path class="cls-1" d="M349.84,366.5c-14.2,5.06-9.16,19.4-9.16,19.4,14.25-5,9.16-19.4,9.16-19.4" transform="translate(-191.03 -315.7)"/><path class="cls-1" d="M322.95,350.51c-15,6.63-8.44,21.81-8.44,21.81,15.05-6.62,8.44-21.81,8.44-21.81" transform="translate(-191.03 -315.7)"/><path class="cls-1" d="M321,390.93c15.08-4.12,11-19.4,11-19.4-15.18,4-11,19.4-11,19.4" transform="translate(-191.03 -315.7)"/><path class="cls-1" d="M341.89,397.51c14.12,7.66,23.43-5.87,23.43-5.87-14.06-7.67-23.43,5.87-23.43,5.87" transform="translate(-191.03 -315.7)"/><path class="cls-1" d="M269.31,420.43s3.43,15.55,18.8,12.24c0,0-3.41-15.5-18.8-12.24" transform="translate(-191.03 -315.7)"/><path class="cls-1" d="M281.78,411.32s-3.81-14.69-19.18-11.8c0,0,3.78,14.67,19.18,11.8" transform="translate(-191.03 -315.7)"/><path class="cls-1" d="M269.56,458.35s16.13-2.17,15.45-17.41c0,0-16.14,2.11-15.45,17.41" transform="translate(-191.03 -315.7)"/><path class="cls-1" d="M223,448s15.51,2.93,20-11.86c0,0-15.52-2.92-20,11.86" transform="translate(-191.03 -315.7)"/><path class="cls-1" d="M242.66,425.29s13.68,6,20.93-6.68c0,0-13.68-6-20.93,6.68" transform="translate(-191.03 -315.7)"/><path class="cls-1" d="M236.42,424.43s-11.81-10.51-23.23-.16c0,0,11.78,10.47,23.23.16" transform="translate(-191.03 -315.7)"/><path class="cls-1" d="M251.7,449.94S267,447.24,266,432c0,0-15.35,2.73-14.3,17.93" transform="translate(-191.03 -315.7)"/><path class="cls-1" d="M301.85,382s10-13.79-3.63-23.85c0,0-10,13.82,3.63,23.85" transform="translate(-191.03 -315.7)"/><path class="cls-1" d="M274.25,391.26s-1.09-15.88-16.77-14.69c0,0,1.19,15.77,16.77,14.69" transform="translate(-191.03 -315.7)"/><path class="cls-1" d="M240,411.29s-4.85-12.54-19.37-7.1c0,0,5.79,12.6,19.37,7.1" transform="translate(-191.03 -315.7)"/><path class="cls-1" d="M256.54,410.1s1.64-16.38-14-19.68c0,0-1.67,16.35,14,19.68" transform="translate(-191.03 -315.7)"/><path class="cls-1" d="M332.25,441.27c-1.87,2.8-2.27,7.42-.71,12.09s4.66,8.13,7.84,9.25c1.88-2.81,2.26-7.43.7-12.09s-4.64-8.13-7.82-9.24" transform="translate(-191.03 -315.7)"/></svg>
